<svg width="35" height="59" viewBox="0 0 35 59" fill="none" xmlns="http://www.w3.org/2000/svg">
<path d="M15.9506 0.324698C16.6585 -0.103543 17.5444 -0.108684 18.2573 0.31131L33.1394 8.7995C33.8258 9.20395 34.2472 9.9413 34.2472 10.7381V27.3983C34.2472 28.1913 33.8297 28.9258 33.1483 29.3315L17.9602 38.0747C17.6602 38.2533 17.2799 38.0372 17.2799 37.6881L17.2799 19.0847L0.861345 9.62371C0.457216 9.40068 0.445756 8.82392 0.840705 8.58502L15.9506 0.324698Z" fill="#3A3A3A"/>
<path d="M-0.000479794 30.5198L15.66 39.5598L15.6599 57.7615C15.6599 58.1383 15.2557 58.3769 14.9257 58.1949L1.39521 50.4298C0.534176 49.9548 -0.000484176 49.0491 -0.000484688 48.0657L-0.000479794 30.5198Z" fill="#3A3A3A"/>
<path d="M15.6599 38.1196L1.18397 29.757L15.6599 21.5147L15.6599 38.1196Z" fill="#3A3A3A"/>
<path d="M-0.000363145 11.6432C-0.000361161 11.3695 0.29293 11.1959 0.532845 11.3276L15.6597 20.0297L-0.000488281 29.0998L-0.000363145 11.6432Z" fill="#3A3A3A"/>
</svg>
